<svg xmlns="http://www.w3.org/2000/svg" xmlns:xlink="http://www.w3.org/1999/xlink" width="26" height="26" viewBox="0 0 26 26">
  <defs>
    <style>
      .cls-1 {
        fill: url(#linear-gradient);
      }

      .cls-2 {
        fill: #fff;
      }
    </style>
    <linearGradient id="linear-gradient" y1="0.5" x2="0.999" y2="0.5" gradientUnits="objectBoundingBox">
      <stop offset="0" stop-color="#fbb728"/>
      <stop offset="1" stop-color="#f38200"/>
    </linearGradient>
  </defs>
  <g id="组_6622" data-name="组 6622" transform="translate(-385 -358)">
    <g id="组_6616" data-name="组 6616" transform="translate(385 358)">
      <rect id="矩形_3181" data-name="矩形 3181" class="cls-1" width="26" height="26" rx="10" transform="translate(0 0)"/>
    </g>
    <g id="组_6621" data-name="组 6621" transform="translate(389.588 363.353)">
      <path id="路径_4741" data-name="路径 4741" class="cls-2" d="M466.4,185.493c-2.718.137-5.006,1.682-4.673,4.38a3.746,3.746,0,0,0,2.053,2.542c.176.43-.606,1.936-.606,1.936s1.232.274,2.855-1.31c.684.117,4.966.02,5.123-3.676C471.143,189.114,471.208,185.845,466.4,185.493Zm-2.561,4.771a.978.978,0,1,1,.978-.978A.978.978,0,0,1,463.837,190.264Zm2.581,0a.978.978,0,1,1,.978-.978A.978.978,0,0,1,466.418,190.264Zm2.542,0a.978.978,0,1,1,.978-.978A.978.978,0,0,1,468.96,190.264Z" transform="translate(-454.326 -185.493)"/>
      <path id="路径_4742" data-name="路径 4742" class="cls-2" d="M107.982,166.074c-.12.7-.968.759-1.293,2.539a6.022,6.022,0,0,0,4.087,5.3c2.209.587,2.617-.993,3.53-.95.933.044,2.629,2.162,2.612,2.671-.164,1.108-1.869,2.53-4.088,2.014-3.813-.528-9.131-6-9.581-9.953-.313-2.8,1-4.008,2.15-4.346.853.005,2.641,1.961,2.585,2.727Z" transform="translate(-103.201 -163.037)"/>
    </g>
  </g>
</svg>
