<svg xmlns="http://www.w3.org/2000/svg" xmlns:xlink="http://www.w3.org/1999/xlink" width="26" height="26" viewBox="0 0 26 26">
  <defs>
    <style>
      .cls-1, .cls-3 {
        fill: url(#linear-gradient);
      }

      .cls-2 {
        fill: #fff;
      }

      .cls-3 {
        fill-rule: evenodd;
      }
    </style>
    <linearGradient id="linear-gradient" x1="0.5" x2="0.5" y2="1" gradientUnits="objectBoundingBox">
      <stop offset="0" stop-color="#6db5f3"/>
      <stop offset="1" stop-color="#0090ff"/>
    </linearGradient>
  </defs>
  <g id="组_6623" data-name="组 6623" transform="translate(-385 -304)">
    <g id="组_6615" data-name="组 6615" transform="translate(385 304)">
      <rect id="矩形_3181" data-name="矩形 3181" class="cls-1" width="26" height="26" rx="10" transform="translate(0 0)"/>
    </g>
    <g id="组_6617" data-name="组 6617" transform="translate(389.588 308.588)">
      <circle id="椭圆_359" data-name="椭圆 359" class="cls-2" cx="8.412" cy="8.412" r="8.412" transform="translate(0 0)"/>
      <path id="路径_4034" data-name="路径 4034" class="cls-3" d="M231.989,424.729a7.65,7.65,0,1,1-5.408,2.242,7.624,7.624,0,0,1,5.408-2.242Zm-.091,4.713-.022,0a1.5,1.5,0,0,0-.653.232,1.372,1.372,0,0,0-.463.5,1.4,1.4,0,0,0-.169.8,1.454,1.454,0,0,0,.223.657l-.025,0a1.376,1.376,0,0,0-.684.058,1.412,1.412,0,0,0-.648.466,1.485,1.485,0,0,0-.3.731l0,.047,0,.232a1.517,1.517,0,0,0,.265.693,1.41,1.41,0,0,0,2.034.283.981.981,0,0,0,.131-.145c-.031.078-.06.167-.091.263l-.018.051a1.42,1.42,0,0,1-.3.57.238.238,0,0,0,.145.428h1.431a.241.241,0,0,0,.134-.04.237.237,0,0,0,.065-.33,4.809,4.809,0,0,1-.332-.579,3.317,3.317,0,0,1-.145-.345,1.147,1.147,0,0,0,.328.3l.013.007a1.4,1.4,0,0,0,.76.12,1.416,1.416,0,0,0,1.074-.726,1.606,1.606,0,0,0,.174-.541l0-.04,0-.234a1.489,1.489,0,0,0-.274-.7l-.011-.018a1.418,1.418,0,0,0-.595-.461l-.009,0a1.368,1.368,0,0,0-.7-.089l-.051.007a1.2,1.2,0,0,0,.2-.508l0,0a1.422,1.422,0,0,0-.432-1.3,1.345,1.345,0,0,0-.372-.25,1.611,1.611,0,0,0-.43-.123l-.053-.007Zm.194.479h-.185a1,1,0,0,0-.423.156.921.921,0,0,0-.3.325l0,0a.952.952,0,0,0,.089,1.043l0,0a.65.65,0,0,0,.154.143c.234.158.3.2.08.613l-.02.031a.236.236,0,0,1-.334.049,1.04,1.04,0,0,0-.439-.185.891.891,0,0,0-.446.038h-.007a.931.931,0,0,0-.426.307,1,1,0,0,0-.2.49v.192a1.013,1.013,0,0,0,.178.452.888.888,0,0,0,.368.305l0,0a.95.95,0,0,0,.5.076.9.9,0,0,0,.466-.2l0,0a3.02,3.02,0,0,0,.229-.321,1.748,1.748,0,0,1,.45-.519.239.239,0,0,1,.187-.027c.2-.038.374.2.57.472a2.392,2.392,0,0,0,.419.51l.009,0a.919.919,0,0,0,.5.078.9.9,0,0,0,.466-.192l.007,0a.9.9,0,0,0,.238-.285,1.082,1.082,0,0,0,.118-.365v-.187a.988.988,0,0,0-.18-.454l-.011-.013a.918.918,0,0,0-.385-.305l-.018,0a.889.889,0,0,0-.457-.058.981.981,0,0,0-.443.174l-.011.007a.236.236,0,0,1-.33-.058c-.261-.37-.118-.495.114-.693a.748.748,0,0,0,.292-.486l0-.013a.945.945,0,0,0-.033-.466.921.921,0,0,0-.254-.394l0,0a.887.887,0,0,0-.243-.16,1.071,1.071,0,0,0-.3-.087Zm-.045,3.848a5.417,5.417,0,0,1-.263,1.065h.544c-.261-.464-.143-.677-.281-1.065Zm5.479-5.865-1.388,1.208a5.261,5.261,0,0,1,1.132,3.242l1.834.109,0-.087a7.1,7.1,0,0,0-1.58-4.472Zm-1.783.76,1.388-1.208-.109-.114a7.1,7.1,0,0,0-4.773-2.079V427.1a5.2,5.2,0,0,1,1.758.394,5.314,5.314,0,0,1,1.716,1.145l.02.022Zm3.329,4.4-1.834-.109a5.263,5.263,0,0,1-1.464,3.106l1.234,1.364.013-.011a7.1,7.1,0,0,0,2.05-4.35Zm-2.5,4.764-1.232-1.364a5.276,5.276,0,0,1-1.328.8,5.344,5.344,0,0,1-1.892.4l-.073,1.836a7.067,7.067,0,0,0,4.526-1.669Zm-5.123,1.649.074-1.836a5.209,5.209,0,0,1-1.549-.379,5.325,5.325,0,0,1-1.587-1.023l-1.339,1.261a7.1,7.1,0,0,0,4.4,1.976Zm-4.813-2.409,1.339-1.261a5.233,5.233,0,0,1-1.259-3.2l-1.838-.036a7.082,7.082,0,0,0,1.758,4.492Zm-1.749-5.089,1.836.036a5.246,5.246,0,0,1,.388-1.653,5.305,5.305,0,0,1,.951-1.508l-1.288-1.312a7.085,7.085,0,0,0-1.887,4.439Zm2.313-4.86,1.286,1.313a5.28,5.28,0,0,1,3.171-1.321v-1.838a7.067,7.067,0,0,0-4.457,1.847Zm8.176,1.879a4.785,4.785,0,1,0-6.767,6.767,4.848,4.848,0,0,0,1.553,1.038,4.784,4.784,0,0,0,5.214-7.806Z" transform="translate(-223.577 -423.964)"/>
    </g>
  </g>
</svg>
