<svg xmlns="http://www.w3.org/2000/svg" xmlns:xlink="http://www.w3.org/1999/xlink" width="26" height="26" viewBox="0 0 26 26">
  <defs>
    <style>
      .cls-1 {
        fill: url(#linear-gradient);
      }

      .cls-2 {
        fill: #fff;
      }
    </style>
    <linearGradient id="linear-gradient" y1="0.5" x2="0.999" y2="0.5" gradientUnits="objectBoundingBox">
      <stop offset="0" stop-color="#fbb728"/>
      <stop offset="1" stop-color="#f38200"/>
    </linearGradient>
  </defs>
  <g id="组_6619" data-name="组 6619" transform="translate(-385 -196)">
    <g id="组_6613" data-name="组 6613" transform="translate(385 196)">
      <rect id="矩形_3181" data-name="矩形 3181" class="cls-1" width="26" height="26" rx="10" transform="translate(0 0)"/>
    </g>
    <path id="路径_4739" data-name="路径 4739" class="cls-2" d="M49.872,149.154a.938.938,0,0,1,1,.854v.015c.215,3.043,1.824,5.012,4.971,6.039l.1.031a.938.938,0,0,1,.654.877v2.321a.938.938,0,0,1-1.877.016v-1.653l-.033-.012a8.151,8.151,0,0,1-5.675-7.371L49,150.155A.938.938,0,0,1,49.872,149.154Zm15.078.018a.938.938,0,0,0-1,.854v.015c-.215,3.043-1.824,5.012-4.971,6.039l-.1.031a.938.938,0,0,0-.654.877v2.321a.938.938,0,0,0,1.877.016v-1.653l.033-.012a8.151,8.151,0,0,0,5.675-7.371l.009-.115A.938.938,0,0,0,64.951,149.172ZM59.673,145a2.734,2.734,0,0,1,2.8,2.751c0,1.577-1.191,2.9-3.093,4.643l-.139.127-.141.129-.072.065-.145.131-.147.133-.225.2-.386.347-.3.262a.666.666,0,0,1-.87.01l-.012-.01-.3-.262-.462-.414-.149-.134-.22-.2-.072-.065-.142-.129-.07-.064-.139-.127c-1.9-1.747-3.093-3.066-3.093-4.643A2.734,2.734,0,0,1,55.1,145a3.036,3.036,0,0,1,2.288,1.05A3.036,3.036,0,0,1,59.673,145Z" transform="translate(340.588 56.353)"/>
  </g>
</svg>
