<svg xmlns="http://www.w3.org/2000/svg" xmlns:xlink="http://www.w3.org/1999/xlink" width="26" height="26" viewBox="0 0 26 26">
  <defs>
    <style>
      .cls-1 {
        fill: url(#linear-gradient);
      }

      .cls-2 {
        fill: #fff;
      }
    </style>
    <linearGradient id="linear-gradient" x1="0.929" y1="1.076" x2="0.259" y2="0.293" gradientUnits="objectBoundingBox">
      <stop offset="0" stop-color="#2386ec"/>
      <stop offset="1" stop-color="#4bb1e3"/>
    </linearGradient>
  </defs>
  <g id="组_6620" data-name="组 6620" transform="translate(-385 -142)">
    <g id="组_6612" data-name="组 6612" transform="translate(385 142)">
      <rect id="矩形_3181" data-name="矩形 3181" class="cls-1" width="26" height="26" rx="10"/>
      <path id="路径_4738" data-name="路径 4738" class="cls-2" d="M84.013,81.629a3.392,3.392,0,0,1,.106.569,5.69,5.69,0,0,1,.04.675,3.32,3.32,0,0,1-.053.642,1.184,1.184,0,0,1-.152.45.779.779,0,0,1-.39.2,6.58,6.58,0,0,1-.807.179c-.324.06-.681.106-1.071.159s-.78.093-1.177.126-.774.06-1.144.086-.688.033-.965.033-.6-.013-.959-.033-.734-.053-1.124-.086-.774-.073-1.151-.106-.727-.086-1.045-.132-.582-.1-.8-.152a1.264,1.264,0,0,1-.41-.146,1.424,1.424,0,0,1-.218-.7,5.433,5.433,0,0,1,.053-1.5,1.2,1.2,0,0,1,.423-.8,2.845,2.845,0,0,1,.807-.437c.311-.113.628-.205.959-.291a2.747,2.747,0,0,0,.873-.377,3.031,3.031,0,0,0,.456-.364,1.377,1.377,0,0,0,.231-.331.816.816,0,0,0,.073-.351q0-.179-.02-.417a.871.871,0,0,0-.231-.53q-.2-.189-.436-.377a.811.811,0,0,1-.2-.285c-.06-.119-.112-.245-.159-.364s-.086-.285-.132-.45a1.387,1.387,0,0,1-.2-.1.883.883,0,0,1-.172-.2,1.337,1.337,0,0,1-.172-.364,1.03,1.03,0,0,1,.02-.788,1.113,1.113,0,0,1,.178-.3,7.514,7.514,0,0,1,.053-1.086,8.661,8.661,0,0,1,.2-.98,3.022,3.022,0,0,1,.443-.947,2.588,2.588,0,0,1,.6-.649,2.957,2.957,0,0,1,.681-.391,3.074,3.074,0,0,1,.7-.192,4.765,4.765,0,0,1,.668-.053,3.26,3.26,0,0,1,1.521.351,2.8,2.8,0,0,1,1.527,1.761,8.486,8.486,0,0,1,.258,1.039,5.919,5.919,0,0,1,.066,1.132.829.829,0,0,1,.152.179,1.269,1.269,0,0,1,.093.258.95.95,0,0,1,.007.391,1.41,1.41,0,0,1-.132.483,1.322,1.322,0,0,1-.2.285.567.567,0,0,1-.264.152c-.046.166-.086.318-.132.45a2.956,2.956,0,0,1-.165.364.824.824,0,0,1-.212.265,2.691,2.691,0,0,1-.245.2,2.514,2.514,0,0,0-.192.172.7.7,0,0,0-.139.205,1.026,1.026,0,0,0-.093.285,2.46,2.46,0,0,0-.026.444,1.116,1.116,0,0,0,.106.437,1.233,1.233,0,0,0,.324.417,1.985,1.985,0,0,0,.628.351,5.294,5.294,0,0,0,.774.258,7.9,7.9,0,0,1,.82.258,2.849,2.849,0,0,1,.7.384,1.731,1.731,0,0,1,.443.642M75.12,78.557a1.231,1.231,0,0,1-.086.285.674.674,0,0,1-.231.218,4.264,4.264,0,0,1-.932.43c-.337.113-.655.232-.959.364a2.763,2.763,0,0,0-.8.53,1.519,1.519,0,0,0-.423.927q-.03.189-.04.358c-.007.119-.013.225-.026.324a.269.269,0,0,0-.033.06.582.582,0,0,1-.033.06c-.436-.033-.873-.073-1.316-.119s-.853-.1-1.223-.152-.688-.113-.946-.166a1.308,1.308,0,0,1-.483-.166,1.226,1.226,0,0,1-.225-.7,5.582,5.582,0,0,1,.06-1.516,1.233,1.233,0,0,1,.423-.794,2.574,2.574,0,0,1,.813-.43c.311-.106.628-.205.959-.291a3.265,3.265,0,0,0,.873-.364,3.539,3.539,0,0,0,.463-.364,1.062,1.062,0,0,0,.225-.344.977.977,0,0,0,.066-.358c0-.119-.007-.258-.02-.4a.849.849,0,0,0-.225-.53c-.126-.126-.271-.258-.423-.391a.694.694,0,0,1-.225-.265c-.06-.119-.112-.245-.159-.364s-.086-.285-.132-.45a1.386,1.386,0,0,1-.2-.1.883.883,0,0,1-.172-.2,1.567,1.567,0,0,1-.172-.364,1.052,1.052,0,0,1-.066-.437,1.091,1.091,0,0,1,.086-.358.87.87,0,0,1,.179-.3,6.671,6.671,0,0,1,.053-1.086,7.636,7.636,0,0,1,.218-.967,3.053,3.053,0,0,1,.45-.934,2.589,2.589,0,0,1,.6-.649,2.918,2.918,0,0,1,.674-.391,2.848,2.848,0,0,1,.694-.192,4.868,4.868,0,0,1,.681-.053,3.2,3.2,0,0,1,1.5.351,3.24,3.24,0,0,1,1.005.755,1.326,1.326,0,0,1,.271.523c.04.159.093.351.159.563a3.269,3.269,0,0,0-.674.543,6.948,6.948,0,0,0-.628.728,3.567,3.567,0,0,0-.5,1.033,9.97,9.97,0,0,0-.251,1.053,8.627,8.627,0,0,0-.079,1.165,1,1,0,0,0-.2.331,1.358,1.358,0,0,0-.086.391,1.323,1.323,0,0,0,.066.49,1.867,1.867,0,0,0,.179.43,1.226,1.226,0,0,0,.185.232.5.5,0,0,0,.2.132c.046.179.086.344.132.5.046.132.1.271.159.41a.9.9,0,0,0,.225.311,1.568,1.568,0,0,1,.179.165c.046.046.079.086.112.126a.347.347,0,0,1,.053.159.581.581,0,0,0,.026.238" transform="translate(-62.747 -63.336)"/>
    </g>
  </g>
</svg>
